<?xml version="1.0" encoding="UTF-8" standalone="no"?>
<!DOCTYPE svg PUBLIC "-//W3C//DTD SVG 1.1//EN"
 "http://www.w3.org/Graphics/SVG/1.1/DTD/svg11.dtd">
<!-- Generated by graphviz version 2.40.1 (20161225.0304)
 -->
<!-- Title: %3 Pages: 1 -->
<svg width="1005pt" height="1052pt"
 viewBox="0.00 0.00 1005.28 1052.00" xmlns="http://www.w3.org/2000/svg" xmlns:xlink="http://www.w3.org/1999/xlink">
<g id="graph0" class="graph" transform="scale(1 1) rotate(0) translate(4 1048)">
<title>%3</title>
<polygon fill="#ffffff" stroke="transparent" points="-4,4 -4,-1048 1001.2819,-1048 1001.2819,4 -4,4"/>
<!-- theorie_examen -->
<g id="node1" class="node">
<title>theorie_examen</title>
<g id="a_node1"><a xlink:href="http://www.programming-emu.com/Programmeren2/examen/theorie.html" xlink:title="Theorie eerste zit">
<ellipse fill="none" stroke="#000000" cx="380.5408" cy="-1026" rx="72.2875" ry="18"/>
<text text-anchor="middle" x="380.5408" y="-1022.3" font-family="Times,serif" font-size="14.00" fill="#000000">Theorie eerste zit</text>
</a>
</g>
</g>
<!-- lijsteninterfaces -->
<g id="node2" class="node">
<title>lijsteninterfaces</title>
<g id="a_node2"><a xlink:href="http://www.programming-emu.com/Programmeren2/oefeningen/synthese-lijsten-interfaces-oef-1.html" xlink:title="Synthese lijsten interfaces">
<ellipse fill="none" stroke="#000000" cx="436.5408" cy="-306" rx="102.8821" ry="18"/>
<text text-anchor="middle" x="436.5408" y="-302.3" font-family="Times,serif" font-size="14.00" fill="#000000">Synthese lijsten interfaces</text>
</a>
</g>
</g>
<!-- examen -->
<g id="node3" class="node">
<title>examen</title>
<g id="a_node3"><a xlink:href="http://www.programming-emu.com/attachments/Programmeren2/organisatie-examen-p2.txt" xlink:title="Organisatie examen">
<ellipse fill="none" stroke="#000000" cx="681.5408" cy="-1026" rx="81.4863" ry="18"/>
<text text-anchor="middle" x="681.5408" y="-1022.3" font-family="Times,serif" font-size="14.00" fill="#000000">Organisatie examen</text>
</a>
</g>
</g>
<!-- abstractie_a -->
<g id="node4" class="node">
<title>abstractie_a</title>
<g id="a_node4"><a xlink:href="http://www.programming-emu.com/Programmeren2/basisprincipes-oo/abstractie.html" xlink:title="Abstractie">
<ellipse fill="none" stroke="#00ff00" cx="637.5408" cy="-954" rx="46.5926" ry="18"/>
<text text-anchor="middle" x="637.5408" y="-950.3" font-family="Times,serif" font-size="14.00" fill="#000000">Abstractie</text>
</a>
</g>
</g>
<!-- access_modifiers_public_en_private -->
<g id="node7" class="node">
<title>access_modifiers_public_en_private</title>
<g id="a_node7"><a xlink:href="http://www.programming-emu.com/Programmeren2/technische-aspecten/access-modifiers-public-private.html" xlink:title="Access modifiers: public en private">
<ellipse fill="none" stroke="#00ff00" cx="645.5408" cy="-882" rx="136.4758" ry="18"/>
<text text-anchor="middle" x="645.5408" y="-878.3" font-family="Times,serif" font-size="14.00" fill="#000000">Access modifiers: public en private</text>
</a>
</g>
</g>
<!-- abstractie_a&#45;&gt;access_modifiers_public_en_private -->
<g id="edge3" class="edge">
<title>abstractie_a&#45;&gt;access_modifiers_public_en_private</title>
<path fill="none" stroke="#000000" stroke-dasharray="5,2" d="M639.5595,-935.8314C640.4151,-928.131 641.4325,-918.9743 642.3834,-910.4166"/>
<polygon fill="#000000" stroke="#000000" points="645.8691,-910.7386 643.4949,-900.4133 638.9119,-909.9656 645.8691,-910.7386"/>
</g>
<!-- abstractie_b -->
<g id="node5" class="node">
<title>abstractie_b</title>
<g id="a_node5"><a xlink:href="http://www.programming-emu.com/Programmeren2/basisprincipes-oo/abstractie.html" xlink:title="Abstractie">
<ellipse fill="none" stroke="#00ff00" cx="574.5408" cy="-810" rx="46.5926" ry="18"/>
<text text-anchor="middle" x="574.5408" y="-806.3" font-family="Times,serif" font-size="14.00" fill="#000000">Abstractie</text>
</a>
</g>
</g>
<!-- getters_en_setters -->
<g id="node11" class="node">
<title>getters_en_setters</title>
<g id="a_node11"><a xlink:href="http://www.programming-emu.com/Programmeren2/technische-aspecten/getters-en-setters.html" xlink:title="Getters en setters">
<ellipse fill="none" stroke="#00ff00" cx="562.5408" cy="-738" rx="71.4873" ry="18"/>
<text text-anchor="middle" x="562.5408" y="-734.3" font-family="Times,serif" font-size="14.00" fill="#000000">Getters en setters</text>
</a>
</g>
</g>
<!-- abstractie_b&#45;&gt;getters_en_setters -->
<g id="edge4" class="edge">
<title>abstractie_b&#45;&gt;getters_en_setters</title>
<path fill="none" stroke="#000000" d="M571.5127,-791.8314C570.2293,-784.131 568.7032,-774.9743 567.2769,-766.4166"/>
<polygon fill="#000000" stroke="#000000" points="570.7061,-765.7018 565.6097,-756.4133 563.8014,-766.8526 570.7061,-765.7018"/>
</g>
<!-- access_modifier_protected -->
<g id="node6" class="node">
<title>access_modifier_protected</title>
<g id="a_node6"><a xlink:href="http://www.programming-emu.com/Programmeren2/technische-aspecten/access-modifier-protected.html" xlink:title="Access modifier: protected">
<ellipse fill="none" stroke="#00ff00" cx="756.5408" cy="-234" rx="106.6812" ry="18"/>
<text text-anchor="middle" x="756.5408" y="-230.3" font-family="Times,serif" font-size="14.00" fill="#000000">Access modifier: protected</text>
</a>
</g>
</g>
<!-- virtual_en_override -->
<g id="node24" class="node">
<title>virtual_en_override</title>
<g id="a_node24"><a xlink:href="http://www.programming-emu.com/Programmeren2/technische-aspecten/virtual-en-override-en-base.html" xlink:title="Sleutelwoorden: virtual, override, base">
<ellipse fill="none" stroke="#00ff00" cx="776.5408" cy="-162" rx="148.3739" ry="18"/>
<text text-anchor="middle" x="776.5408" y="-158.3" font-family="Times,serif" font-size="14.00" fill="#000000">Sleutelwoorden: virtual, override, base</text>
</a>
</g>
</g>
<!-- access_modifier_protected&#45;&gt;virtual_en_override -->
<g id="edge25" class="edge">
<title>access_modifier_protected&#45;&gt;virtual_en_override</title>
<path fill="none" stroke="#000000" d="M761.5876,-215.8314C763.7501,-208.0463 766.3261,-198.7729 768.7256,-190.1347"/>
<polygon fill="#000000" stroke="#000000" points="772.1218,-190.9852 771.426,-180.4133 765.3772,-189.1117 772.1218,-190.9852"/>
</g>
<!-- access_modifiers_public_en_private&#45;&gt;abstractie_b -->
<g id="edge6" class="edge">
<title>access_modifiers_public_en_private&#45;&gt;abstractie_b</title>
<path fill="none" stroke="#000000" d="M627.6245,-863.8314C618.7203,-854.8018 607.8417,-843.7699 598.256,-834.0492"/>
<polygon fill="#000000" stroke="#000000" points="600.7456,-831.5891 591.232,-826.9263 595.7614,-836.5042 600.7456,-831.5891"/>
</g>
<!-- overerving_a -->
<g id="node14" class="node">
<title>overerving_a</title>
<g id="a_node14"><a xlink:href="http://www.programming-emu.com/Programmeren2/basisprincipes-oo/overerving.html" xlink:title="Overerving">
<ellipse fill="none" stroke="#00ff00" cx="661.5408" cy="-450" rx="50.8918" ry="18"/>
<text text-anchor="middle" x="661.5408" y="-446.3" font-family="Times,serif" font-size="14.00" fill="#000000">Overerving</text>
</a>
</g>
</g>
<!-- access_modifiers_public_en_private&#45;&gt;overerving_a -->
<g id="edge7" class="edge">
<title>access_modifiers_public_en_private&#45;&gt;overerving_a</title>
<path fill="none" stroke="#000000" d="M648.856,-863.8863C653.5425,-836.6615 661.5408,-783.5285 661.5408,-738 661.5408,-738 661.5408,-738 661.5408,-594 661.5408,-553.876 661.5408,-507.4631 661.5408,-478.4177"/>
<polygon fill="#000000" stroke="#000000" points="665.0409,-478.1853 661.5408,-468.1854 658.0409,-478.1854 665.0409,-478.1853"/>
</g>
<!-- uml_notatie_basis_klassen -->
<g id="node20" class="node">
<title>uml_notatie_basis_klassen</title>
<g id="a_node20"><a xlink:href="http://www.programming-emu.com/Programmeren2/uml/notatie-basis-klassen.html" xlink:title="UML&#45;notatie: klassen">
<ellipse fill="none" stroke="#00ff00" cx="827.5408" cy="-522" rx="88.2844" ry="18"/>
<text text-anchor="middle" x="827.5408" y="-518.3" font-family="Times,serif" font-size="14.00" fill="#000000">UML&#45;notatie: klassen</text>
</a>
</g>
</g>
<!-- access_modifiers_public_en_private&#45;&gt;uml_notatie_basis_klassen -->
<g id="edge8" class="edge">
<title>access_modifiers_public_en_private&#45;&gt;uml_notatie_basis_klassen</title>
<path fill="none" stroke="#000000" d="M674.4068,-864.2456C709.3406,-840.2866 763.5408,-794.0778 763.5408,-738 763.5408,-738 763.5408,-738 763.5408,-666 763.5408,-621.8116 789.0179,-576.0598 807.8233,-548.3079"/>
<polygon fill="#000000" stroke="#000000" points="810.8001,-550.1581 813.6538,-539.9548 805.0601,-546.1516 810.8001,-550.1581"/>
</g>
<!-- constructoren_met_parameters -->
<g id="node8" class="node">
<title>constructoren_met_parameters</title>
<g id="a_node8"><a xlink:href="http://www.programming-emu.com/Programmeren2/technische-aspecten/constructoren-met-parameters.html" xlink:title="Constructoren met parameters">
<ellipse fill="none" stroke="#00ff00" cx="131.5408" cy="-666" rx="118.0794" ry="18"/>
<text text-anchor="middle" x="131.5408" y="-662.3" font-family="Times,serif" font-size="14.00" fill="#000000">Constructoren met parameters</text>
</a>
</g>
</g>
<!-- base_constructor -->
<g id="node27" class="node">
<title>base_constructor</title>
<g id="a_node27"><a xlink:href="http://www.programming-emu.com/Programmeren2/technische-aspecten/base-constructor.html" xlink:title="Constructor van de ouderklasse">
<ellipse fill="none" stroke="#00ff00" cx="413.5408" cy="-234" rx="122.3786" ry="18"/>
<text text-anchor="middle" x="413.5408" y="-230.3" font-family="Times,serif" font-size="14.00" fill="#000000">Constructor van de ouderklasse</text>
</a>
</g>
</g>
<!-- constructoren_met_parameters&#45;&gt;base_constructor -->
<g id="edge11" class="edge">
<title>constructoren_met_parameters&#45;&gt;base_constructor</title>
<path fill="none" stroke="#000000" d="M75.123,-650.0726C55.1505,-641.771 34.259,-629.5653 20.5408,-612 -4.6224,-579.7801 1.5408,-562.8816 1.5408,-522 1.5408,-522 1.5408,-522 1.5408,-378 1.5408,-311.717 193.973,-268.7749 315.8118,-248.229"/>
<polygon fill="#000000" stroke="#000000" points="316.6236,-251.6421 325.9141,-246.5493 315.4755,-244.7369 316.6236,-251.6421"/>
</g>
<!-- recursieve_datastructuren -->
<g id="node32" class="node">
<title>recursieve_datastructuren</title>
<g id="a_node32"><a xlink:href="http://www.programming-emu.com/Programmeren2/technische-aspecten/recursie/recursieve-datastructuren.html" xlink:title="Recursieve datastructuren">
<ellipse fill="none" stroke="#00ff00" cx="131.5408" cy="-594" rx="102.0819" ry="18"/>
<text text-anchor="middle" x="131.5408" y="-590.3" font-family="Times,serif" font-size="14.00" fill="#000000">Recursieve datastructuren</text>
</a>
</g>
</g>
<!-- constructoren_met_parameters&#45;&gt;recursieve_datastructuren -->
<g id="edge14" class="edge">
<title>constructoren_met_parameters&#45;&gt;recursieve_datastructuren</title>
<path fill="none" stroke="#000000" d="M131.5408,-647.8314C131.5408,-640.131 131.5408,-630.9743 131.5408,-622.4166"/>
<polygon fill="#000000" stroke="#000000" points="135.0409,-622.4132 131.5408,-612.4133 128.0409,-622.4133 135.0409,-622.4132"/>
</g>
<!-- constructoren_zonder_parameters -->
<g id="node9" class="node">
<title>constructoren_zonder_parameters</title>
<g id="a_node9"><a xlink:href="http://www.programming-emu.com/Programmeren2/technische-aspecten/constructoren-zonder-parameters.html" xlink:title="Constructoren zonder parameters">
<ellipse fill="none" stroke="#00ff00" cx="344.5408" cy="-738" rx="128.0773" ry="18"/>
<text text-anchor="middle" x="344.5408" y="-734.3" font-family="Times,serif" font-size="14.00" fill="#000000">Constructoren zonder parameters</text>
</a>
</g>
</g>
<!-- constructoren_zonder_parameters&#45;&gt;constructoren_met_parameters -->
<g id="edge9" class="edge">
<title>constructoren_zonder_parameters&#45;&gt;constructoren_met_parameters</title>
<path fill="none" stroke="#000000" d="M295.1389,-721.3008C263.708,-710.6762 222.8568,-696.8674 189.8393,-685.7065"/>
<polygon fill="#000000" stroke="#000000" points="190.9014,-682.371 180.3071,-682.4844 188.6597,-689.0024 190.9014,-682.371"/>
</g>
<!-- polymorfisme_a -->
<g id="node17" class="node">
<title>polymorfisme_a</title>
<g id="a_node17"><a xlink:href="http://www.programming-emu.com/Programmeren2/basisprincipes-oo/polymorfisme.html" xlink:title="Polymorfisme">
<ellipse fill="none" stroke="#00ff00" cx="537.5408" cy="-666" rx="61.99" ry="18"/>
<text text-anchor="middle" x="537.5408" y="-662.3" font-family="Times,serif" font-size="14.00" fill="#000000">Polymorfisme</text>
</a>
</g>
</g>
<!-- constructoren_zonder_parameters&#45;&gt;polymorfisme_a -->
<g id="edge10" class="edge">
<title>constructoren_zonder_parameters&#45;&gt;polymorfisme_a</title>
<path fill="none" stroke="#000000" d="M389.7907,-721.1192C419.8508,-709.9051 459.2577,-695.204 489.8136,-683.805"/>
<polygon fill="#000000" stroke="#000000" points="491.2544,-687.0032 499.4003,-680.2286 488.8077,-680.4447 491.2544,-687.0032"/>
</g>
<!-- encapsulatie -->
<g id="node10" class="node">
<title>encapsulatie</title>
<g id="a_node10"><a xlink:href="http://www.programming-emu.com/Programmeren2/basisprincipes-oo/encapsulatie.html" xlink:title="Encapsulatie">
<ellipse fill="none" stroke="#00ff00" cx="526.5408" cy="-1026" rx="55.7903" ry="18"/>
<text text-anchor="middle" x="526.5408" y="-1022.3" font-family="Times,serif" font-size="14.00" fill="#000000">Encapsulatie</text>
</a>
</g>
</g>
<!-- encapsulatie&#45;&gt;abstractie_a -->
<g id="edge16" class="edge">
<title>encapsulatie&#45;&gt;abstractie_a</title>
<path fill="none" stroke="#000000" d="M551.4514,-1009.8418C567.2363,-999.6029 587.8222,-986.2499 604.9055,-975.1688"/>
<polygon fill="#000000" stroke="#000000" points="606.9908,-977.9881 613.4758,-969.6098 603.1814,-972.1153 606.9908,-977.9881"/>
</g>
<!-- static -->
<g id="node19" class="node">
<title>static</title>
<g id="a_node19"><a xlink:href="http://www.programming-emu.com/Programmeren2/technische-aspecten/static.html" xlink:title="Statische attributen en methodes">
<ellipse fill="none" stroke="#00ff00" cx="415.5408" cy="-954" rx="126.1777" ry="18"/>
<text text-anchor="middle" x="415.5408" y="-950.3" font-family="Times,serif" font-size="14.00" fill="#000000">Statische attributen en methodes</text>
</a>
</g>
</g>
<!-- encapsulatie&#45;&gt;static -->
<g id="edge17" class="edge">
<title>encapsulatie&#45;&gt;static</title>
<path fill="none" stroke="#000000" d="M501.6302,-1009.8418C486.853,-1000.2565 467.8682,-987.9421 451.4885,-977.3175"/>
<polygon fill="#000000" stroke="#000000" points="452.9943,-974.1224 442.7,-971.6168 449.1849,-979.9951 452.9943,-974.1224"/>
</g>
<!-- getters_en_setters&#45;&gt;polymorfisme_a -->
<g id="edge18" class="edge">
<title>getters_en_setters&#45;&gt;polymorfisme_a</title>
<path fill="none" stroke="#000000" d="M556.2322,-719.8314C553.4577,-711.8406 550.1387,-702.2819 547.0725,-693.4514"/>
<polygon fill="#000000" stroke="#000000" points="550.3473,-692.2121 543.7607,-683.9134 543.7346,-694.5082 550.3473,-692.2121"/>
</g>
<!-- interfaces -->
<g id="node12" class="node">
<title>interfaces</title>
<g id="a_node12"><a xlink:href="http://www.programming-emu.com/Programmeren2/technische-aspecten/interfaces.html" xlink:title="Interfaces">
<ellipse fill="none" stroke="#00ff00" cx="537.5408" cy="-594" rx="45.4919" ry="18"/>
<text text-anchor="middle" x="537.5408" y="-590.3" font-family="Times,serif" font-size="14.00" fill="#000000">Interfaces</text>
</a>
</g>
</g>
<!-- interfaces&#45;&gt;lijsteninterfaces -->
<g id="edge2" class="edge">
<title>interfaces&#45;&gt;lijsteninterfaces</title>
<path fill="none" stroke="#000000" d="M514.512,-578.0614C486.1239,-556.8118 439.4425,-516.2237 421.5408,-468 404.9541,-423.3187 416.75,-367.1572 426.7188,-334.0616"/>
<polygon fill="#000000" stroke="#000000" points="430.1687,-334.7607 429.8529,-324.1706 423.4957,-332.6462 430.1687,-334.7607"/>
</g>
<!-- polymorfisme_b -->
<g id="node18" class="node">
<title>polymorfisme_b</title>
<g id="a_node18"><a xlink:href="http://www.programming-emu.com/Programmeren2/basisprincipes-oo/polymorfisme.html" xlink:title="Polymorfisme">
<ellipse fill="none" stroke="#00ff00" cx="554.5408" cy="-522" rx="61.99" ry="18"/>
<text text-anchor="middle" x="554.5408" y="-518.3" font-family="Times,serif" font-size="14.00" fill="#000000">Polymorfisme</text>
</a>
</g>
</g>
<!-- interfaces&#45;&gt;polymorfisme_b -->
<g id="edge19" class="edge">
<title>interfaces&#45;&gt;polymorfisme_b</title>
<path fill="none" stroke="#000000" d="M541.8306,-575.8314C543.6488,-568.131 545.8107,-558.9743 547.8313,-550.4166"/>
<polygon fill="#000000" stroke="#000000" points="551.3016,-550.95 550.1932,-540.4133 544.4889,-549.3414 551.3016,-550.95"/>
</g>
<!-- meerdere_interfaces -->
<g id="node13" class="node">
<title>meerdere_interfaces</title>
<g id="a_node13"><a xlink:href="http://www.programming-emu.com/Programmeren2/technische-aspecten/meerdere-interfaces.html" xlink:title="Meerdere interfaces">
<ellipse fill="none" stroke="#00ff00" cx="511.5408" cy="-450" rx="81.4863" ry="18"/>
<text text-anchor="middle" x="511.5408" y="-446.3" font-family="Times,serif" font-size="14.00" fill="#000000">Meerdere interfaces</text>
</a>
</g>
</g>
<!-- listt -->
<g id="node28" class="node">
<title>listt</title>
<g id="a_node28"><a xlink:href="http://www.programming-emu.com/Programmeren2/technische-aspecten/listt.html" xlink:title="List&lt;T&gt;">
<ellipse fill="none" stroke="#00ff00" cx="470.5408" cy="-378" rx="40.0939" ry="18"/>
<text text-anchor="middle" x="470.5408" y="-374.3" font-family="Times,serif" font-size="14.00" fill="#000000">List&lt;T&gt;</text>
</a>
</g>
</g>
<!-- meerdere_interfaces&#45;&gt;listt -->
<g id="edge37" class="edge">
<title>meerdere_interfaces&#45;&gt;listt</title>
<path fill="none" stroke="#000000" d="M501.1948,-431.8314C496.5466,-423.6688 490.9668,-413.87 485.849,-404.8827"/>
<polygon fill="#000000" stroke="#000000" points="488.7314,-402.8713 480.7415,-395.9134 482.6485,-406.3352 488.7314,-402.8713"/>
</g>
<!-- dictionary -->
<g id="node29" class="node">
<title>dictionary</title>
<g id="a_node29"><a xlink:href="http://www.programming-emu.com/Programmeren2/technische-aspecten/dictionary.html" xlink:title="Dictionary&lt;TKey,TValue&gt;">
<ellipse fill="none" stroke="#00ff00" cx="636.5408" cy="-378" rx="107.781" ry="18"/>
<text text-anchor="middle" x="636.5408" y="-374.3" font-family="Times,serif" font-size="14.00" fill="#000000">Dictionary&lt;TKey,TValue&gt;</text>
</a>
</g>
</g>
<!-- meerdere_interfaces&#45;&gt;dictionary -->
<g id="edge38" class="edge">
<title>meerdere_interfaces&#45;&gt;dictionary</title>
<path fill="none" stroke="#000000" d="M540.8477,-433.1192C557.7153,-423.4035 579.1268,-411.0705 597.4174,-400.5351"/>
<polygon fill="#000000" stroke="#000000" points="599.1938,-403.551 606.1122,-395.5269 595.6999,-397.4853 599.1938,-403.551"/>
</g>
<!-- subklassen -->
<g id="node22" class="node">
<title>subklassen</title>
<g id="a_node22"><a xlink:href="http://www.programming-emu.com/Programmeren2/technische-aspecten/subklassen.html" xlink:title="Subklassen">
<ellipse fill="none" stroke="#00ff00" cx="812.5408" cy="-378" rx="50.0912" ry="18"/>
<text text-anchor="middle" x="812.5408" y="-374.3" font-family="Times,serif" font-size="14.00" fill="#000000">Subklassen</text>
</a>
</g>
</g>
<!-- overerving_a&#45;&gt;subklassen -->
<g id="edge21" class="edge">
<title>overerving_a&#45;&gt;subklassen</title>
<path fill="none" stroke="#000000" stroke-dasharray="5,2" d="M692.0979,-435.4297C715.4044,-424.3167 747.6946,-408.92 772.9749,-396.8659"/>
<polygon fill="#000000" stroke="#000000" points="774.7672,-399.8888 782.2872,-392.4256 771.7544,-393.5704 774.7672,-399.8888"/>
</g>
<!-- overerving_b -->
<g id="node15" class="node">
<title>overerving_b</title>
<g id="a_node15"><a xlink:href="http://www.programming-emu.com/Programmeren2/basisprincipes-oo/overerving.html" xlink:title="Overerving">
<ellipse fill="none" stroke="#00ff00" cx="682.5408" cy="-306" rx="50.8918" ry="18"/>
<text text-anchor="middle" x="682.5408" y="-302.3" font-family="Times,serif" font-size="14.00" fill="#000000">Overerving</text>
</a>
</g>
</g>
<!-- overerving_b&#45;&gt;access_modifier_protected -->
<g id="edge20" class="edge">
<title>overerving_b&#45;&gt;access_modifier_protected</title>
<path fill="none" stroke="#000000" d="M700.0778,-288.937C709.2054,-280.0561 720.5422,-269.0257 730.6571,-259.1841"/>
<polygon fill="#000000" stroke="#000000" points="733.3705,-261.4274 738.0971,-251.9453 728.489,-256.4103 733.3705,-261.4274"/>
</g>
<!-- sealed -->
<g id="node23" class="node">
<title>sealed</title>
<g id="a_node23"><a xlink:href="http://www.programming-emu.com/Programmeren2/technische-aspecten/sealed.html" xlink:title="Sleutelwoord: sealed">
<ellipse fill="none" stroke="#00ff00" cx="525.5408" cy="-162" rx="84.485" ry="18"/>
<text text-anchor="middle" x="525.5408" y="-158.3" font-family="Times,serif" font-size="14.00" fill="#000000">Sleutelwoord: sealed</text>
</a>
</g>
</g>
<!-- overerving_b&#45;&gt;sealed -->
<g id="edge33" class="edge">
<title>overerving_b&#45;&gt;sealed</title>
<path fill="none" stroke="#000000" d="M664.2236,-289.1995C636.6331,-263.8936 584.2538,-215.8514 552.3595,-186.598"/>
<polygon fill="#000000" stroke="#000000" points="554.4551,-183.7708 544.7197,-179.5908 549.7235,-188.9296 554.4551,-183.7708"/>
</g>
<!-- overerving_b&#45;&gt;base_constructor -->
<g id="edge32" class="edge">
<title>overerving_b&#45;&gt;base_constructor</title>
<path fill="none" stroke="#000000" d="M641.9775,-295.1429C599.8033,-283.8547 533.0172,-265.9788 482.5279,-252.465"/>
<polygon fill="#000000" stroke="#000000" points="483.2244,-249.0282 472.6595,-249.8236 481.4145,-255.7902 483.2244,-249.0282"/>
</g>
<!-- overerving_c -->
<g id="node16" class="node">
<title>overerving_c</title>
<g id="a_node16"><a xlink:href="http://www.programming-emu.com/Programmeren2/basisprincipes-oo/synthese-overerving.html" xlink:title="Synthese overerving">
<ellipse fill="none" stroke="#000000" cx="650.5408" cy="-18" rx="83.3857" ry="18"/>
<text text-anchor="middle" x="650.5408" y="-14.3" font-family="Times,serif" font-size="14.00" fill="#000000">Synthese overerving</text>
</a>
</g>
</g>
<!-- polymorfisme_a&#45;&gt;interfaces -->
<g id="edge26" class="edge">
<title>polymorfisme_a&#45;&gt;interfaces</title>
<path fill="none" stroke="#000000" stroke-dasharray="5,2" d="M537.5408,-647.8314C537.5408,-640.131 537.5408,-630.9743 537.5408,-622.4166"/>
<polygon fill="#000000" stroke="#000000" points="541.0409,-622.4132 537.5408,-612.4133 534.0409,-622.4133 541.0409,-622.4132"/>
</g>
<!-- polymorfisme_b&#45;&gt;meerdere_interfaces -->
<g id="edge27" class="edge">
<title>polymorfisme_b&#45;&gt;meerdere_interfaces</title>
<path fill="none" stroke="#000000" d="M543.9116,-504.2022C538.9873,-495.9569 533.0305,-485.9828 527.5763,-476.8501"/>
<polygon fill="#000000" stroke="#000000" points="530.4788,-474.884 522.3464,-468.0931 524.469,-478.4732 530.4788,-474.884"/>
</g>
<!-- polymorfisme_b&#45;&gt;overerving_a -->
<g id="edge28" class="edge">
<title>polymorfisme_b&#45;&gt;overerving_a</title>
<path fill="none" stroke="#000000" d="M579.0888,-505.4817C593.9776,-495.4631 613.1474,-482.5638 629.2555,-471.7247"/>
<polygon fill="#000000" stroke="#000000" points="631.5002,-474.4329 637.8428,-465.9463 627.5922,-468.6253 631.5002,-474.4329"/>
</g>
<!-- uml_notatie_interfaces -->
<g id="node21" class="node">
<title>uml_notatie_interfaces</title>
<g id="a_node21"><a xlink:href="http://www.programming-emu.com/Programmeren2/uml/notatie-interfaces.html" xlink:title="UML&#45;notatie: interfaces">
<ellipse fill="none" stroke="#00ff00" cx="827.5408" cy="-450" rx="96.6831" ry="18"/>
<text text-anchor="middle" x="827.5408" y="-446.3" font-family="Times,serif" font-size="14.00" fill="#000000">UML&#45;notatie: interfaces</text>
</a>
</g>
</g>
<!-- polymorfisme_b&#45;&gt;uml_notatie_interfaces -->
<g id="edge29" class="edge">
<title>polymorfisme_b&#45;&gt;uml_notatie_interfaces</title>
<path fill="none" stroke="#000000" d="M600.5428,-509.8676C644.7058,-498.2202 711.8715,-480.5062 761.6965,-467.3655"/>
<polygon fill="#000000" stroke="#000000" points="762.6416,-470.736 771.4184,-464.8015 760.8564,-463.9675 762.6416,-470.736"/>
</g>
<!-- static&#45;&gt;constructoren_zonder_parameters -->
<g id="edge30" class="edge">
<title>static&#45;&gt;constructoren_zonder_parameters</title>
<path fill="none" stroke="#000000" d="M409.6095,-935.9555C397.2106,-898.235 368.4766,-810.8188 353.6919,-765.8399"/>
<polygon fill="#000000" stroke="#000000" points="356.9529,-764.5521 350.5051,-756.1451 350.3029,-766.738 356.9529,-764.5521"/>
</g>
<!-- uml_notatie_basis_klassen&#45;&gt;uml_notatie_interfaces -->
<g id="edge36" class="edge">
<title>uml_notatie_basis_klassen&#45;&gt;uml_notatie_interfaces</title>
<path fill="none" stroke="#000000" d="M827.5408,-503.8314C827.5408,-496.131 827.5408,-486.9743 827.5408,-478.4166"/>
<polygon fill="#000000" stroke="#000000" points="831.0409,-478.4132 827.5408,-468.4133 824.0409,-478.4133 831.0409,-478.4132"/>
</g>
<!-- uml_notatie_subklassen -->
<g id="node26" class="node">
<title>uml_notatie_subklassen</title>
<g id="a_node26"><a xlink:href="http://www.programming-emu.com/Programmeren2/uml/notatie-subklassen.html" xlink:title="UML&#45;notatie: subklassen">
<ellipse fill="none" stroke="#00ff00" cx="896.5408" cy="-18" rx="100.9827" ry="18"/>
<text text-anchor="middle" x="896.5408" y="-14.3" font-family="Times,serif" font-size="14.00" fill="#000000">UML&#45;notatie: subklassen</text>
</a>
</g>
</g>
<!-- uml_notatie_basis_klassen&#45;&gt;uml_notatie_subklassen -->
<g id="edge35" class="edge">
<title>uml_notatie_basis_klassen&#45;&gt;uml_notatie_subklassen</title>
<path fill="none" stroke="#000000" d="M877.617,-507.1662C897.8166,-498.7657 919.5969,-486.1968 933.5408,-468 958.4067,-435.5501 952.5408,-418.8816 952.5408,-378 952.5408,-378 952.5408,-378 952.5408,-162 952.5408,-118.8617 930.4409,-73.0945 914.0076,-45.0255"/>
<polygon fill="#000000" stroke="#000000" points="916.8545,-42.9688 908.692,-36.2143 910.8608,-46.5847 916.8545,-42.9688"/>
</g>
<!-- subklassen&#45;&gt;overerving_b -->
<g id="edge31" class="edge">
<title>subklassen&#45;&gt;overerving_b</title>
<path fill="none" stroke="#000000" d="M784.9711,-362.7307C765.7536,-352.0871 739.9142,-337.776 718.9964,-326.1908"/>
<polygon fill="#000000" stroke="#000000" points="720.5144,-323.0306 710.0707,-321.2473 717.1229,-329.1542 720.5144,-323.0306"/>
</g>
<!-- sealed&#45;&gt;overerving_c -->
<g id="edge23" class="edge">
<title>sealed&#45;&gt;overerving_c</title>
<path fill="none" stroke="#000000" d="M541.1194,-144.0535C563.1339,-118.6928 603.4512,-72.2472 628.5201,-43.3679"/>
<polygon fill="#000000" stroke="#000000" points="631.2463,-45.5664 635.1585,-35.7204 625.9601,-40.9777 631.2463,-45.5664"/>
</g>
<!-- abstracte_klassen -->
<g id="node25" class="node">
<title>abstracte_klassen</title>
<g id="a_node25"><a xlink:href="http://www.programming-emu.com/Programmeren2/technische-aspecten/abstracte-klassen.html" xlink:title="Abstracte klassen">
<ellipse fill="none" stroke="#00ff00" cx="763.5408" cy="-90" rx="72.5877" ry="18"/>
<text text-anchor="middle" x="763.5408" y="-86.3" font-family="Times,serif" font-size="14.00" fill="#000000">Abstracte klassen</text>
</a>
</g>
</g>
<!-- virtual_en_override&#45;&gt;abstracte_klassen -->
<g id="edge5" class="edge">
<title>virtual_en_override&#45;&gt;abstracte_klassen</title>
<path fill="none" stroke="#000000" d="M773.2603,-143.8314C771.87,-136.131 770.2167,-126.9743 768.6716,-118.4166"/>
<polygon fill="#000000" stroke="#000000" points="772.0866,-117.6322 766.8654,-108.4133 765.198,-118.8761 772.0866,-117.6322"/>
</g>
<!-- abstracte_klassen&#45;&gt;overerving_c -->
<g id="edge24" class="edge">
<title>abstracte_klassen&#45;&gt;overerving_c</title>
<path fill="none" stroke="#000000" d="M737.0473,-73.1192C721.9662,-63.51 702.867,-51.3406 686.4531,-40.8822"/>
<polygon fill="#000000" stroke="#000000" points="687.9675,-37.697 677.6531,-35.2751 684.2059,-43.6005 687.9675,-37.697"/>
</g>
<!-- abstracte_klassen&#45;&gt;uml_notatie_subklassen -->
<g id="edge22" class="edge">
<title>abstracte_klassen&#45;&gt;uml_notatie_subklassen</title>
<path fill="none" stroke="#000000" d="M794.0537,-73.4817C812.4094,-63.5448 835.9998,-50.7741 855.9196,-39.9904"/>
<polygon fill="#000000" stroke="#000000" points="857.6539,-43.0316 864.7817,-35.1929 854.3214,-36.8757 857.6539,-43.0316"/>
</g>
<!-- base_constructor&#45;&gt;abstracte_klassen -->
<g id="edge34" class="edge">
<title>base_constructor&#45;&gt;abstracte_klassen</title>
<path fill="none" stroke="#000000" d="M411.8537,-215.9745C411.0172,-195.4964 413.1357,-162.5261 432.5408,-144 467.3289,-110.7878 595.0685,-97.9528 681.2995,-93.0263"/>
<polygon fill="#000000" stroke="#000000" points="681.5446,-96.5183 691.3386,-92.4776 681.1625,-89.5287 681.5446,-96.5183"/>
</g>
<!-- listt&#45;&gt;lijsteninterfaces -->
<g id="edge1" class="edge">
<title>listt&#45;&gt;lijsteninterfaces</title>
<path fill="none" stroke="#000000" d="M462.1363,-360.2022C458.2832,-352.0428 453.6307,-342.1904 449.3549,-333.1358"/>
<polygon fill="#000000" stroke="#000000" points="452.5198,-331.6411 445.0848,-324.0931 446.19,-334.6302 452.5198,-331.6411"/>
</g>
<!-- recursieve_methodes_1 -->
<g id="node30" class="node">
<title>recursieve_methodes_1</title>
<g id="a_node30"><a xlink:href="http://www.programming-emu.com/Programmeren2/technische-aspecten/recursie/recursieve-methodes-1.html" xlink:title="Recursieve methodes 1">
<ellipse fill="none" stroke="#00ff00" cx="344.5408" cy="-594" rx="92.8835" ry="18"/>
<text text-anchor="middle" x="344.5408" y="-590.3" font-family="Times,serif" font-size="14.00" fill="#000000">Recursieve methodes 1</text>
</a>
</g>
</g>
<!-- accumulatoren -->
<g id="node31" class="node">
<title>accumulatoren</title>
<g id="a_node31"><a xlink:href="http://www.programming-emu.com/Programmeren2/technische-aspecten/recursie/accumulatoren.html" xlink:title="Accumulatoren">
<ellipse fill="none" stroke="#000000" cx="308.5408" cy="-522" rx="65.7887" ry="18"/>
<text text-anchor="middle" x="308.5408" y="-518.3" font-family="Times,serif" font-size="14.00" fill="#000000">Accumulatoren</text>
</a>
</g>
</g>
<!-- recursieve_methodes_1&#45;&gt;accumulatoren -->
<g id="edge13" class="edge">
<title>recursieve_methodes_1&#45;&gt;accumulatoren</title>
<path fill="none" stroke="#000000" d="M335.4565,-575.8314C331.3752,-567.6688 326.4758,-557.87 321.9822,-548.8827"/>
<polygon fill="#000000" stroke="#000000" points="325.1002,-547.2924 317.4975,-539.9134 318.8392,-550.423 325.1002,-547.2924"/>
</g>
<!-- recursieve_methodes_2 -->
<g id="node33" class="node">
<title>recursieve_methodes_2</title>
<g id="a_node33"><a xlink:href="http://www.programming-emu.com/Programmeren2/technische-aspecten/recursie/recursieve-methodes-2.html" xlink:title="Recursieve methodes 2">
<ellipse fill="none" stroke="#000000" cx="131.5408" cy="-522" rx="92.8835" ry="18"/>
<text text-anchor="middle" x="131.5408" y="-518.3" font-family="Times,serif" font-size="14.00" fill="#000000">Recursieve methodes 2</text>
</a>
</g>
</g>
<!-- recursieve_methodes_1&#45;&gt;recursieve_methodes_2 -->
<g id="edge12" class="edge">
<title>recursieve_methodes_1&#45;&gt;recursieve_methodes_2</title>
<path fill="none" stroke="#000000" d="M298.323,-578.3771C265.7779,-567.3759 222.0342,-552.5893 187.5114,-540.9197"/>
<polygon fill="#000000" stroke="#000000" points="188.63,-537.6032 178.0357,-537.7166 186.3883,-544.2346 188.63,-537.6032"/>
</g>
<!-- recursieve_datastructuren&#45;&gt;recursieve_methodes_2 -->
<g id="edge15" class="edge">
<title>recursieve_datastructuren&#45;&gt;recursieve_methodes_2</title>
<path fill="none" stroke="#000000" d="M131.5408,-575.8314C131.5408,-568.131 131.5408,-558.9743 131.5408,-550.4166"/>
<polygon fill="#000000" stroke="#000000" points="135.0409,-550.4132 131.5408,-540.4133 128.0409,-550.4133 135.0409,-550.4132"/>
</g>
<!-- debugging -->
<g id="node34" class="node">
<title>debugging</title>
<g id="a_node34"><a xlink:href="http://www.programming-emu.com/Programmeren2/tools/debugging.html" xlink:title="Debugging">
<ellipse fill="none" stroke="#000000" cx="830.5408" cy="-1026" rx="50.0912" ry="18"/>
<text text-anchor="middle" x="830.5408" y="-1022.3" font-family="Times,serif" font-size="14.00" fill="#000000">Debugging</text>
</a>
</g>
</g>
</g>
</svg>
